/* XPM */
static char * paraviewlogo_xpm[] = {
"32 32 405 2",
"  	c None",
". 	c #6E554B",
"+ 	c #7A4536",
"@ 	c #742D26",
"# 	c #71201F",
"$ 	c #6E1A1C",
"% 	c #72161B",
"& 	c #532324",
"* 	c #5B654A",
"= 	c #476C43",
"- 	c #356336",
"; 	c #2B602F",
"> 	c #225C2D",
", 	c #1B5228",
"' 	c #234228",
") 	c #515D66",
"! 	c #384F64",
"~ 	c #264462",
"{ 	c #193959",
"] 	c #103457",
"^ 	c #0E3152",
"/ 	c #123251",
"( 	c #AB6A5D",
"_ 	c #E16352",
": 	c #CF3F35",
"< 	c #CB2C2E",
"[ 	c #C8242B",
"} 	c #D7212B",
"| 	c #84373A",
"1 	c #636460",
"2 	c #94C782",
"3 	c #62B764",
"4 	c #48AB51",
"5 	c #39A54B",
"6 	c #2EA54A",
"7 	c #2C9446",
"8 	c #2C5933",
"9 	c #648198",
"0 	c #568ABA",
"a 	c #2F6CA9",
"b 	c #185F9E",
"c 	c #0A5898",
"d 	c #055597",
"e 	c #064378",
"f 	c #916D62",
"g 	c #A9413C",
"h 	c #C51F29",
"i 	c #BE1C27",
"j 	c #BE1E27",
"k 	c #BE1F27",
"l 	c #C72129",
"m 	c #663437",
"n 	c #64725A",
"o 	c #4EB258",
"p 	c #259944",
"q 	c #239845",
"r 	c #269B46",
"s 	c #329147",
"t 	c #476D90",
"u 	c #1F66A3",
"v 	c #044E8C",
"w 	c #054F8D",
"x 	c #064E8B",
"y 	c #085495",
"z 	c #1F476B",
"A 	c #8E544E",
"B 	c #C33B3A",
"C 	c #BD1B25",
"D 	c #BE2027",
"E 	c #C3242A",
"F 	c #A62125",
"G 	c #5C8754",
"H 	c #2B9B45",
"I 	c #229745",
"J 	c #229746",
"K 	c #249846",
"L 	c #2C9744",
"M 	c #31813F",
"N 	c #36658E",
"O 	c #085393",
"P 	c #074C8B",
"Q 	c #084D8B",
"R 	c #074E8C",
"S 	c #0D5A9C",
"T 	c #283F55",
"U 	c #954945",
"V 	c #D23235",
"W 	c #BD1C25",
"X 	c #C92B2C",
"Y 	c #912E31",
"Z 	c #5BA95D",
"` 	c #229743",
" .	c #239846",
"..	c #269A46",
"+.	c #389546",
"@.	c #35673E",
"#.	c #496783",
"$.	c #246095",
"%.	c #044D8B",
"&.	c #074D8B",
"*.	c #0B5290",
"=.	c #0E518D",
"-.	c #47525D",
";.	c #A24643",
">.	c #C61E28",
",.	c #BD1F27",
"'.	c #BF2328",
").	c #D23031",
"!.	c #752D2F",
"~.	c #515549",
"{.	c #49AC56",
"].	c #229844",
"^.	c #2D9E47",
"/.	c #439D4E",
"(.	c #324A37",
"_.	c #416483",
":.	c #195F9D",
"<.	c #044C8A",
"[.	c #165998",
"}.	c #194671",
"|.	c #8C5751",
"1.	c #B33634",
"2.	c #BF1B26",
"3.	c #BE1E26",
"4.	c #C32D2C",
"5.	c #C32C2C",
"6.	c #704041",
"7.	c #4E7149",
"8.	c #319E49",
"9.	c #239746",
"0.	c #3A9F49",
"a.	c #3A9347",
"b.	c #30597F",
"c.	c #105A9A",
"d.	c #064C8A",
"e.	c #08508E",
"f.	c #1D61A2",
"g.	c #2C4B68",
"h.	c #894B46",
"i.	c #C82E2F",
"j.	c #BE1E25",
"k.	c #BF2028",
"l.	c #CB3932",
"m.	c #9F2B2B",
"n.	c #4A884C",
"o.	c #269845",
"p.	c #2A9A47",
"q.	c #469E4D",
"r.	c #35783F",
"s.	c #255785",
"t.	c #065090",
"u.	c #054D8B",
"v.	c #155793",
"w.	c #1E5E9D",
"x.	c #3C4F64",
"y.	c #8D3F3B",
"z.	c #CE262C",
"A.	c #BD1F26",
"B.	c #BD1E26",
"C.	c #C1292A",
"D.	c #D53F38",
"E.	c #8B3636",
"F.	c #46A14F",
"G.	c #379F49",
"H.	c #4EA254",
"I.	c #2D5C36",
"J.	c #47617C",
"K.	c #1A5A95",
"L.	c #044C8B",
"M.	c #064F8D",
"N.	c #255F9A",
"O.	c #1F5387",
"P.	c #9F3633",
"Q.	c #C41E27",
"R.	c #BF1F27",
"S.	c #C53731",
"T.	c #D03E39",
"U.	c #7B393A",
"V.	c #495B47",
"W.	c #3BA54F",
"X.	c #279946",
"Y.	c #49A551",
"Z.	c #4DA758",
"`.	c #2D5072",
" +	c #135C9D",
".+	c #064D8B",
"++	c #0F5491",
"@+	c #3167A4",
"#+	c #2C5378",
"$+	c #845350",
"%+	c #BC2D2D",
"&+	c #BD1C26",
"*+	c #BD1E27",
"=+	c #C12529",
"-+	c #CB473B",
";+	c #B83834",
">+	c #803F42",
",+	c #4B7A4B",
"'+	c #2A9846",
")+	c #339C47",
"!+	c #55A85B",
"~+	c #40944E",
"{+	c #24517A",
"]+	c #085394",
"^+	c #064E8D",
"/+	c #205B97",
"(+	c #376FAE",
"_+	c #334D69",
":+	c #7C3C3A",
"<+	c #CE282C",
"[+	c #BC1E26",
"}+	c #C3312E",
"|+	c #D45444",
"1+	c #9E3D3C",
"2+	c #3E8D46",
"3+	c #249745",
"4+	c #259845",
"5+	c #44A34E",
"6+	c #60AD64",
"7+	c #34703E",
"8+	c #1B5284",
"9+	c #054E8E",
"0+	c #0C5290",
"a+	c #33669F",
"b+	c #30659F",
"c+	c #3E5269",
"d+	c #8D3533",
"e+	c #C92129",
"f+	c #C02228",
"g+	c #C84337",
"h+	c #DD584A",
"i+	c #8D3D3F",
"j+	c #3A9C49",
"k+	c #249946",
"l+	c #309B46",
"m+	c #55AA5B",
"n+	c #66B66C",
"o+	c #335539",
"p+	c #2C4864",
"q+	c #115896",
"r+	c #064E8C",
"s+	c #195894",
"t+	c #4671A8",
"u+	c #2D5785",
"v+	c #A12929",
"w+	c #C21E27",
"x+	c #C22B2B",
"y+	c #CE5745",
"z+	c #CE4E47",
"A+	c #893E40",
"B+	c #426343",
"C+	c #319B49",
"D+	c #239946",
"E+	c #40A04B",
"F+	c #67B26A",
"G+	c #58AB62",
"H+	c #2E5071",
"I+	c #0A589A",
"J+	c #054D8A",
"K+	c #0A518E",
"L+	c #2D619B",
"M+	c #507AB2",
"N+	c #305175",
"O+	c #673434",
"P+	c #C4262A",
"Q+	c #BD1D26",
"R+	c #BF2128",
"S+	c #C63B33",
"T+	c #D76753",
"U+	c #B14642",
"V+	c #8A4449",
"W+	c #3B7841",
"X+	c #269545",
"Y+	c #229846",
"Z+	c #2D9B46",
"`+	c #52A757",
" @	c #75B776",
".@	c #3F8C4C",
"+@	c #23517B",
"@@	c #045090",
"#@	c #145693",
"$@	c #446EA4",
"%@	c #4C7BB2",
"&@	c #3A5571",
"*@	c #7A3B3C",
"=@	c #D1232A",
"-@	c #C12729",
";@	c #CB503F",
">@	c #DD6F5C",
",@	c #9F4341",
"'@	c #379146",
")@	c #259846",
"!@	c #229845",
"~@	c #3C9E49",
"{@	c #64B067",
"]@	c #7DBD7E",
"^@	c #3E7449",
"/@	c #0E508C",
"(@	c #245D99",
"_@	c #597BAE",
":@	c #436E9F",
"<@	c #4D637B",
"[@	c #913234",
"}@	c #C41D26",
"|@	c #BF2027",
"1@	c #C6352F",
"2@	c #D2654E",
"3@	c #DF6D61",
"4@	c #964546",
"5@	c #319747",
"6@	c #249A46",
"7@	c #299945",
"8@	c #4DA554",
"9@	c #76BA77",
"0@	c #7DC983",
"a@	c #324634",
"b@	c #314D64",
"c@	c #085698",
"d@	c #105491",
"e@	c #3867A0",
"f@	c #6889B9",
"g@	c #416489",
"h@	c #AD2126",
"i@	c #BF1D27",
"j@	c #C02529",
"k@	c #CA4739",
"l@	c #D87960",
"m@	c #CC6259",
"n@	c #92464A",
"o@	c #3C6A40",
"p@	c #2A9244",
"q@	c #219945",
"r@	c #389E48",
"s@	c #5DAC61",
"t@	c #8BC388",
"u@	c #61AD6A",
"v@	c #254B6E",
"w@	c #065495",
"x@	c #074F8D",
"y@	c #1D5A96",
"z@	c #5277AA",
"A@	c #6C93C2",
"B@	c #4A6784",
"C@	c #6C3E3E",
"D@	c #C92128",
"E@	c #C4322F",
"F@	c #D0614A",
"G@	c #E08972",
"H@	c #B05854",
"I@	c #337F40",
"J@	c #249443",
"K@	c #49A451",
"L@	c #74B875",
"M@	c #98C893",
"N@	c #3D8049",
"O@	c #0B4273",
"P@	c #05508F",
"Q@	c #0D5390",
"R@	c #33659E",
"S@	c #6B88B5",
"T@	c #6288B7",
"U@	c #455F7C",
"V@	c #7C3335",
"W@	c #CD212A",
"X@	c #BF2228",
"Y@	c #C73632",
"Z@	c #D0564B",
"`@	c #E16861",
" #	c #A74C4E",
".#	c #339246",
"+#	c #289C47",
"@#	c #309C46",
"##	c #4BA653",
"$#	c #6AB56D",
"%#	c #76C47E",
"&#	c #376142",
"*#	c #344350",
"=#	c #095595",
"-#	c #115693",
";#	c #3568A1",
">#	c #5981B3",
",#	c #3F6B95",
"'#	c #3B5970",
")#	c #851E20",
"!#	c #C01C24",
"~#	c #BB1A22",
"{#	c #BA1B22",
"]#	c #BA1B23",
"^#	c #BA1A22",
"/#	c #8F3237",
"(#	c #37563B",
"_#	c #328E43",
":#	c #259941",
"<#	c #229440",
"[#	c #219440",
"}#	c #219541",
"|#	c #229943",
"1#	c #343F35",
"2#	c #2E4760",
"3#	c #085498",
"4#	c #054A88",
"5#	c #054A89",
"6#	c #074A88",
"7#	c #074C8C",
"8#	c #204C76",
"                                                                ",
"                                                                ",
"                                                                ",
"                                                                ",
"                                                                ",
"                                                                ",
"              . + @ # $ % &     * = - ; > , '   ) ! ~ { ] ^ /   ",
"              ( _ : < [ } |   1 2 3 4 5 6 7 8   9 0 a b c d e   ",
"            f g h i j k l m   n o p q q r s     t u v w x y z   ",
"            A B C D k E F     G H I J K L M     N O P Q R S T   ",
"            U V W k j X Y     Z `  .I ..+.@.  #.$.%.Q &.*.=.-.  ",
"            ;.>.,.k '.).!.  ~.{.].J q ^./.(.  _.:.<.Q x [.}.    ",
"          |.1.2.k 3.4.5.6.  7.8.9.I K 0.a.    b.c.d.&.e.f.g.    ",
"          h.i.j.k k.l.m.    n.o.q q p.q.r.    s.t.Q u.v.w.x.    ",
"          y.z.A.B.C.D.E.    F.K 9. .G.H.I.  J.K.L.&.M.N.O.      ",
"          P.Q.A.R.S.T.U.  V.W. .J X.Y.Z.    `. +d..+++@+#+      ",
"        $+%+&+*+=+-+;+>+  ,+'+ .I )+!+~+    {+]+&.^+/+(+_+      ",
"        :+<+[+j }+|+1+    2+3+J 4+5+6+7+    8+9+.+0+a+b+c+      ",
"        d+e+B.f+g+h+i+    j+k+I l+m+n+o+  p+q+.+r+s+t+u+        ",
"        v+w+j x+y+z+A+  B+C+D+q E+F+G+    H+I+J+K+L+M+N+        ",
"      O+P+Q+R+S+T+U+V+  W+X+Y+Z+`+ @.@    +@@@u.#@$@%@&@        ",
"      *@=@B.-@;@>@,@    '@)@!@~@{@]@^@    /@.+e.(@_@:@<@        ",
"      [@}@|@1@2@3@4@    5@6@7@8@9@0@a@  b@c@.+d@e@f@g@          ",
"      h@i@j@k@l@m@n@  o@p@q@r@s@t@u@    v@w@x@y@z@A@B@          ",
"    C@D@k E@F@G@H@    I@J@X.K@L@M@N@    O@P@Q@R@S@T@U@          ",
"    V@W@X@Y@Z@`@ #    .#+#@###$#%#&#  *#=#w -#;#>#,#'#          ",
"    )#!#~#{#]#^#/#  (#_#:#<#[#}#|#1#  2#3#4#5#6#7#8#            ",
"                                                                ",
"                                                                ",
"                                                                ",
"                                                                ",
"                                                                "};
